<?xml version="1.0" standalone="no"?>
<!DOCTYPE svg PUBLIC "-//W3C//DTD SVG 20010904//EN"
 "http://www.w3.org/TR/2001/REC-SVG-20010904/DTD/svg10.dtd">
<svg version="1.0" xmlns="http://www.w3.org/2000/svg"
 width="952.000000pt" height="952.000000pt" viewBox="0 0 952.000000 952.000000"
 preserveAspectRatio="xMidYMid meet">
<metadata>
Created by potrace 1.11, written by Peter Selinger 2001-2013
</metadata>
<g transform="translate(0.000000,952.000000) scale(0.100000,-0.100000)"
fill="#000000" stroke="none">
<path d="M7157 8402 l-227 -227 608 -608 607 -607 228 228 227 227 -608 608
-607 607 -228 -228z"/>
<path d="M3881 5126 l-2884 -2884 43 -22 c64 -32 147 -116 185 -185 41 -74 59
-131 84 -261 42 -218 125 -300 348 -344 132 -26 168 -37 237 -72 119 -60 216
-190 249 -332 l12 -56 2915 2915 2915 2915 -605 605 c-333 333 -607 605 -610
605 -3 0 -1303 -1298 -2889 -2884z m2513 2043 c31 -25 56 -69 56 -101 0 -17
-278 -301 -1087 -1111 -599 -598 -1098 -1090 -1111 -1093 -56 -15 -132 51
-132 114 0 36 39 76 1087 1124 1043 1043 1089 1088 1124 1088 22 0 47 -8 63
-21z"/>
<path d="M896 2124 c-3 -9 -6 -265 -6 -570 0 -473 2 -559 15 -584 32 -63 7
-60 597 -60 l538 0 -6 28 c-50 229 -144 319 -380 363 -60 11 -133 29 -161 40
-156 56 -254 171 -294 346 -11 48 -27 117 -35 153 -30 127 -90 213 -190 271
-59 33 -70 35 -78 13z"/>
</g>
</svg>
