<svg id="Layer_1" data-name="Layer 1" xmlns="http://www.w3.org/2000/svg" viewBox="0 0 678 678"><defs><style>.cls-1{fill:#1b96fe;fill-rule:evenodd;}</style></defs><title>Credits-transp</title><path class="cls-1" d="M699,51.52A29.52,29.52,0,0,0,669.48,22h-619A29.52,29.52,0,0,0,21,51.52v619A29.52,29.52,0,0,0,50.52,700h619A29.52,29.52,0,0,0,699,670.48ZM241.21,201.93c1-2.7,4.65-4.93,8.2-4.93H470.58c3.55,0,7.21,2.23,8.2,4.93S477.65,207,474,207H246C242.35,207,240.21,204.67,241.21,201.93Zm-7.55,20.48c1.11-3.05,5.06-5.41,8.83-5.41h235c3.77,0,7.72,2.36,8.83,5.41s-1.09,5.59-5,5.59H238.65C234.76,228,232.53,225.52,233.67,222.41Zm-8.57,24c1.27-3.48,5.54-6.39,9.57-6.39H485.33c4,0,8.3,2.91,9.57,6.39s-1,6.61-5.18,6.61H230.28C226.11,253,223.8,249.93,225.1,246.39Zm-9.82,26.47c1.46-4,6.12-6.86,10.43-6.86H494.29c4.31,0,9,2.87,10.43,6.86s-.9,7.14-5.38,7.14H220.66C216.18,280,213.79,276.95,215.28,272.86Zm-11.36,31c1.7-4.65,6.81-8.83,11.45-8.83H504.62c4.64,0,9.76,4.18,11.45,8.83s-.74,9.17-5.58,9.17h-301C204.67,313,202.19,308.58,203.92,303.83Zm-13.29,36.45c2-5.47,7.66-9.28,12.69-9.28H516.68c5,0,10.69,3.82,12.69,9.28s-.52,9.72-5.77,9.72H196.4C191.15,350,188.58,345.88,190.63,340.28Zm-15.77,43.43c2.38-6.53,8.72-11.72,14.21-11.72H530.93c5.49,0,11.82,5.19,14.21,11.72,2.45,6.7-.18,12.28-5.94,12.28H180.8C175,396,172.41,390.42,174.86,383.72Zm-19,51.9C158.75,427.7,165.93,421,172,421H548c6,0,13.22,6.7,16.11,14.62,3,8.16.31,15.38-6.05,15.38H161.91C155.55,451,152.87,443.78,155.85,435.62ZM132.5,500c3.59-9.83,11.85-17,18.56-17H568.94c6.71,0,15,7.15,18.56,17,3.71,10.15,1,18-6.07,18H138.57C131.46,518,128.79,510.12,132.5,500ZM611,604H109c-8.06,0-10.62-10.79-5.88-23.76,4.57-12.5,14.27-22.24,21.82-22.24H595.07c7.55,0,17.25,9.74,21.82,22.24C621.63,593.21,619.06,604,611,604Z" transform="translate(-21 -22)"/></svg>