<svg id="Layer_1" data-name="Layer 1" xmlns="http://www.w3.org/2000/svg" viewBox="0 0 678 678"><defs><style>.cls-1{fill:#1b96fe;fill-rule:evenodd;}</style></defs><title>Dashboard (Resized)-transp</title><path class="cls-1" d="M699,50.52A29.52,29.52,0,0,0,669.48,21h-619A29.52,29.52,0,0,0,21,50.52v619A29.52,29.52,0,0,0,50.52,699h619A29.52,29.52,0,0,0,699,669.48ZM248,598.11A20.84,20.84,0,0,1,226.9,619H117.49C105.71,619,96,609.76,96,598.11V121.89c0-11.65,9.71-20.89,21.49-20.89H226.9A20.84,20.84,0,0,1,248,121.89Zm188,0A21,21,0,0,1,414.76,619H305.35A21.06,21.06,0,0,1,284,598.11V352.52A21.59,21.59,0,0,1,305.35,331H414.76A21.5,21.5,0,0,1,436,352.52Zm188,0A21.08,21.08,0,0,1,602.62,619H493.21A20.94,20.94,0,0,1,472,598.11V237.54A21.5,21.5,0,0,1,493.21,216H602.62A21.64,21.64,0,0,1,624,237.54Z" transform="translate(-21 -21)"/></svg>