<svg id="Layer_1" data-name="Layer 1" xmlns="http://www.w3.org/2000/svg" viewBox="0 0 678 678"><defs><style>.cls-1{fill:#1b96fe;fill-rule:evenodd;}</style></defs><title>Feedback-transp</title><path class="cls-1" d="M669.48,22h-619A29.52,29.52,0,0,0,21,51.52v619A29.52,29.52,0,0,0,50.52,700h619A29.52,29.52,0,0,0,699,670.48v-619A29.52,29.52,0,0,0,669.48,22ZM624,480a23,23,0,0,1-23,23H247.77L129.71,605.21l0-102.21H119a23,23,0,0,1-23-23V217a23,23,0,0,1,23-23H601a23,23,0,0,1,23,23Z" transform="translate(-21 -22)"/></svg>