<svg id="Layer_1" data-name="Layer 1" xmlns="http://www.w3.org/2000/svg" viewBox="0 0 678 678"><defs><style>.cls-1{fill:#1b96fe;fill-rule:evenodd;}</style></defs><title>Rubric (Resized)-transp</title><path class="cls-1" d="M669.48,22h-619A29.52,29.52,0,0,0,21,51.52v619A29.52,29.52,0,0,0,50.52,700h619A29.52,29.52,0,0,0,699,670.48v-619A29.52,29.52,0,0,0,669.48,22ZM603,604H116V117H603Z" transform="translate(-21 -22)"/><path class="cls-1" d="M296.2,296.56H422.52V422.88H296.2Z" transform="translate(-21 -22)"/><path class="cls-1" d="M296.2,143.93H422.52V270.26H296.2Z" transform="translate(-21 -22)"/><path class="cls-1" d="M296.2,449.18H422.52V575.51H296.2Z" transform="translate(-21 -22)"/><path class="cls-1" d="M448.82,449.18H575.15V575.51H448.82Z" transform="translate(-21 -22)"/><path class="cls-1" d="M143.57,449.18H269.9V575.51H143.57Z" transform="translate(-21 -22)"/><path class="cls-1" d="M448.82,296.56H575.15V422.88H448.82Z" transform="translate(-21 -22)"/><path class="cls-1" d="M143.57,296.56H269.9V422.88H143.57Z" transform="translate(-21 -22)"/><path class="cls-1" d="M448.82,143.93H575.15V270.26H448.82Z" transform="translate(-21 -22)"/><path class="cls-1" d="M143.57,143.93H269.9V270.26H143.57Z" transform="translate(-21 -22)"/></svg>