<svg id="Layer_1" data-name="Layer 1" xmlns="http://www.w3.org/2000/svg" viewBox="0 0 678 678"><defs><style>.cls-1{fill:#1b96fe;fill-rule:evenodd;}</style></defs><title>Settings-transp</title><path class="cls-1" d="M699,51.52A29.52,29.52,0,0,0,669.48,22h-619A29.52,29.52,0,0,0,21,51.52v619A29.52,29.52,0,0,0,50.52,700h619A29.52,29.52,0,0,0,699,670.48ZM518,80h59v59H518Zm0,75h59v59H518ZM443,80h59v59H443ZM184,226H143V640H110V226H67V146h43V80h33v66h41ZM385,492H344V640H310V492H268V411h42V80h34V411h41Zm58-337h59v59H443ZM546.92,610.92a60.84,60.84,0,1,1,60.84-60.84A60.84,60.84,0,0,1,546.92,610.92Zm0-204.48a60.84,60.84,0,1,1,60.84-60.84A60.84,60.84,0,0,1,546.92,406.44ZM652,214H593V155h59Zm0-75H593V80h59Z" transform="translate(-21 -22)"/></svg>