<svg id="Layer_1" data-name="Layer 1" xmlns="http://www.w3.org/2000/svg" viewBox="0 0 1876.73 1107.61"><defs><style>.cls-1,.cls-2{fill:#1b96fe;}.cls-1{fill-rule:evenodd;}.cls-2{font-size:335.83px;font-family:'Josefin Sans', sans-serif;}.cls-3{letter-spacing:-0.01em;}.cls-4{letter-spacing:-0.01em;}</style></defs><title>Logo-transp</title><path class="cls-1" d="M676.48,22h-619A29.52,29.52,0,0,0,28,51.52v619A29.52,29.52,0,0,0,57.52,700h619A29.52,29.52,0,0,0,706,670.48v-619A29.52,29.52,0,0,0,676.48,22ZM182.41,631.23a8.87,8.87,0,0,1-.68,1.1c-3.75-20.76-14.4-30.61-36.17-33.72-15-2.15-22.31-9.47-24.45-24.46-2.47-17.25-9.39-27.87-22.39-33.49l412-412.13,87.09,87.12Zm-91.41-4V552.29a8.39,8.39,0,0,1,1.67-4.94c12.27,4.25,17.94,12.87,20.09,28,2.62,18.32,12.44,28.88,31.61,31.62,20,2.87,26.8,11.3,29.43,29.06h-74A9,9,0,0,1,91,627.23ZM608.64,204.78l-87.09-87.12,32.77-32.78L641.41,172Z" transform="translate(-28 290.91)"/><path class="cls-1" d="M484.74,190.59c-2.87-2.87-6.81-3.57-8.8-1.57L322.79,342.21c-2,2-1.29,5.94,1.57,8.8s6.81,3.57,8.8,1.57l153.14-153.2C488.31,197.39,487.6,193.45,484.74,190.59Z" transform="translate(-28 290.91)"/><text x="-28" y="290.91"></text><text class="cls-2" transform="translate(736.61 623.35)"><tspan class="cls-3">R</tspan><tspan x="200.49" y="0">UBRIC</tspan></text><text class="cls-2" transform="translate(729.61 932.41)">P<tspan class="cls-4" x="185.04" y="0">R</tspan><tspan x="384.19" y="0">O</tspan></text></svg>