<svg id="Layer_1" data-name="Layer 1" xmlns="http://www.w3.org/2000/svg" viewBox="0 0 678 678"><defs><style>.cls-1{fill:#1b96fe;fill-rule:evenodd;}</style></defs><title>Accounts-transp</title><path class="cls-1" d="M699,51.52A29.52,29.52,0,0,0,669.48,22h-619A29.52,29.52,0,0,0,21,51.52v619A29.52,29.52,0,0,0,50.52,700h619A29.52,29.52,0,0,0,699,670.48ZM360,107.74A132.81,132.81,0,1,1,227.19,240.55,132.81,132.81,0,0,1,360,107.74ZM563,613H156V511a203.61,203.61,0,0,1,93.28-171.35,155.13,155.13,0,0,0,221,.4A203.6,203.6,0,0,1,563,511Z" transform="translate(-21 -22)"/></svg>