<svg id="Layer_1" data-name="Layer 1" xmlns="http://www.w3.org/2000/svg" viewBox="0 0 678 678"><defs><style>.cls-1{fill:#1b96fe;fill-rule:evenodd;}</style></defs><title>Log Out (Resized-2)-transp</title><path class="cls-1" d="M699,50.52A29.52,29.52,0,0,0,669.48,21h-619A29.52,29.52,0,0,0,21,50.52v619A29.52,29.52,0,0,0,50.52,699h619A29.52,29.52,0,0,0,699,669.48ZM134,227.6,341.26,347.26,134,466.92ZM567,595.32V601h-3.55a5.3,5.3,0,0,1-.86.39l-178.7,68.94c-2.58,1-4.89-1.42-4.89-5.4V601H277V406.2l28-15.9V574h74V171.26c0-4,2.31-8,4.89-9L491,121H305V304.22l-28-15.9V93H567v3.08a10,10,0,0,1,0,2.64V592.39A12.27,12.27,0,0,1,567,595.32Z" transform="translate(-21 -21)"/></svg>