<svg id="Layer_1" data-name="Layer 1" xmlns="http://www.w3.org/2000/svg" viewBox="0 0 710.08 1037.3"><defs><style>.cls-1,.cls-2{fill:#1b96fe;}.cls-1{fill-rule:evenodd;}.cls-3{fill:#fe7d1b;}</style></defs><title>Vertical Logo</title><path class="cls-1" d="M715,30.91A30.91,30.91,0,0,0,684.09,0H35.91A30.91,30.91,0,0,0,5,30.91V679.09A30.91,30.91,0,0,0,35.91,710H684.09A30.91,30.91,0,0,0,715,679.09ZM166.6,637.84a9.28,9.28,0,0,1-.71,1.15c-3.92-21.73-15.08-32-37.87-35.31-15.69-2.25-23.35-9.91-25.6-25.61C99.84,560,92.59,548.89,79,543L510.31,111.52l91.18,91.21ZM71,633.65V555.19A8.74,8.74,0,0,1,72.7,550c12.85,4.45,18.75,13.47,21,29.29,2.75,19.18,13,30.32,33.08,33.19,21,3,28,11.5,30.8,30.5H80.16A9.43,9.43,0,0,1,71,633.65ZM612.85,191.36l-91.18-91.21L556,65.83,647.15,157Z" transform="translate(-5)"/><path class="cls-1" d="M483.13,176.5c-3-3-7.13-3.74-9.21-1.65L313.58,335.24c-2.09,2.09-1.35,6.22,1.65,9.22s7.13,3.74,9.21,1.65L484.78,185.72C486.86,183.63,486.13,179.5,483.13,176.5Z" transform="translate(-5)"/><path class="cls-2" d="M21.69,888.11V736.77H58.36a64.34,64.34,0,0,1,18.44,2.65,46.07,46.07,0,0,1,15.79,8.16,40.71,40.71,0,0,1,11,13.78q4.13,8.27,4.13,19.71A53.32,53.32,0,0,1,102,805.23q-5.72,11.45-18.86,17.59l5.09,8.48q3.18,5.3,7,11.55l7.95,13q4.13,6.79,7.95,12.93t7,11.23q3.18,5.09,5.09,8.05H105.63q-1.7-2.54-4.45-7t-6.15-10q-3.39-5.51-7.21-11.66T80.4,847.41q-3.61-5.93-6.89-11.23t-5.62-9.11a22.48,22.48,0,0,1-4.45.42H36.11v60.62Zm14.41-74.4H58.57q10.17,0,17-3.39a30.93,30.93,0,0,0,10.7-8.37,30.47,30.47,0,0,0,5.51-10.6,38,38,0,0,0,1.59-10.28,29.76,29.76,0,0,0-2.23-11.23A30.23,30.23,0,0,0,84.64,760a31.21,31.21,0,0,0-10.81-7,40,40,0,0,0-15-2.65H36.11Z" transform="translate(-5)"/><path class="cls-2" d="M200.37,889.8a60,60,0,0,1-21.3-3.71A50.47,50.47,0,0,1,162,875.6,48,48,0,0,1,150.67,859a57.35,57.35,0,0,1-4.13-22.36V736.77h14.41V836a44.1,44.1,0,0,0,3,16.53,36.19,36.19,0,0,0,8.27,12.61,37.26,37.26,0,0,0,12.5,8.05A42.11,42.11,0,0,0,200.37,876a41.54,41.54,0,0,0,15.47-2.86,36.64,36.64,0,0,0,20.88-20.67A42.85,42.85,0,0,0,239.79,836V736.77h14.41V836.6A57.35,57.35,0,0,1,250.07,859a47.28,47.28,0,0,1-11.45,16.64,51.67,51.67,0,0,1-17.17,10.49A59.43,59.43,0,0,1,200.37,889.8Z" transform="translate(-5)"/><path class="cls-2" d="M295.75,888.11V736.77h35.4a80.25,80.25,0,0,1,19.18,2.12,39.93,39.93,0,0,1,14.73,6.78,30.26,30.26,0,0,1,9.43,12.08q3.28,7.42,3.29,18a53.11,53.11,0,0,1-1.27,11.76,37,37,0,0,1-4,10.39,28.73,28.73,0,0,1-7.21,8.27,32.16,32.16,0,0,1-11,5.4,50,50,0,0,1,11.55,4,36,36,0,0,1,10,7.21,34.37,34.37,0,0,1,7,10.7A37,37,0,0,1,385.41,848a37.63,37.63,0,0,1-4,17.8,36.09,36.09,0,0,1-10.7,12.51,47.5,47.5,0,0,1-15.37,7.31,66.37,66.37,0,0,1-18,2.44Zm14.41-138.19v55.74H335.6q13.78,0,20.77-8.16t7-20.67q0-14.2-8.48-20.56t-22-6.36Zm0,68.25V875H336a49.52,49.52,0,0,0,13.56-1.8,34.5,34.5,0,0,0,11.13-5.3,25.14,25.14,0,0,0,7.52-8.8A26.29,26.29,0,0,0,371,846.78a25.86,25.86,0,0,0-3.18-13.14,25.28,25.28,0,0,0-8.58-8.9,39.83,39.83,0,0,0-12.29-5,62.48,62.48,0,0,0-14.09-1.59Z" transform="translate(-5)"/><path class="cls-2" d="M418.89,888.11V736.77h36.67A64.34,64.34,0,0,1,474,739.42a46.06,46.06,0,0,1,15.79,8.16,40.71,40.71,0,0,1,11,13.78q4.13,8.27,4.13,19.71a53.34,53.34,0,0,1-5.72,24.16q-5.72,11.45-18.86,17.59l5.09,8.48q3.18,5.3,7,11.55l7.95,13q4.13,6.79,7.95,12.93t7,11.23q3.18,5.09,5.09,8.05H502.83q-1.7-2.54-4.45-7t-6.15-10q-3.39-5.51-7.21-11.66t-7.42-12.08q-3.61-5.93-6.89-11.23t-5.62-9.11a22.48,22.48,0,0,1-4.45.42H433.31v60.62Zm14.41-74.4h22.47q10.17,0,17-3.39a30.93,30.93,0,0,0,10.7-8.37,30.47,30.47,0,0,0,5.51-10.6,38,38,0,0,0,1.59-10.28,29.77,29.77,0,0,0-2.23-11.23,30.23,30.23,0,0,0-6.46-9.86A31.19,31.19,0,0,0,471,753a40,40,0,0,0-15-2.65H433.31Z" transform="translate(-5)"/><path class="cls-2" d="M546.7,736.77h14.63V888.11H546.7Z" transform="translate(-5)"/><path class="cls-2" d="M713.93,877.94a87.74,87.74,0,0,1-18,8.05,81.08,81.08,0,0,1-26.07,3.82,78.44,78.44,0,0,1-31.69-6.15,71.71,71.71,0,0,1-24-16.64,75.13,75.13,0,0,1-15.26-24.27,81.95,81.95,0,0,1,.74-60.41,77.35,77.35,0,0,1,71.85-47.27,91.61,91.61,0,0,1,11.55.74A78.95,78.95,0,0,1,704,741.44a38.65,38.65,0,0,1,7.63,4.24c-.71,1.13-1.27,2-1.7,2.76s-.85,1.45-1.27,2.23-.92,1.66-1.48,2.65-1.27,2.26-2.12,3.81a52.18,52.18,0,0,0-15.79-6.36A75.53,75.53,0,0,0,672,748.64a61.84,61.84,0,0,0-25,5.09,63.41,63.41,0,0,0-20.24,13.88A66.62,66.62,0,0,0,613.15,788a61.17,61.17,0,0,0-5,24.48,64.09,64.09,0,0,0,4.45,23.63A60,60,0,0,0,625.33,856,63.41,63.41,0,0,0,645,869.77,60.82,60.82,0,0,0,670.48,875a72.12,72.12,0,0,0,11.87-1,72.93,72.93,0,0,0,10.6-2.54,81.39,81.39,0,0,0,8.58-3.29,28.18,28.18,0,0,0,5.83-3.39Z" transform="translate(-5)"/><path class="cls-2" d="M21.65,1036V920.19H49.71a49.22,49.22,0,0,1,14.11,2,35.25,35.25,0,0,1,12.08,6.24A31.15,31.15,0,0,1,84.34,939a33.39,33.39,0,0,1,3.16,15.08,41.55,41.55,0,0,1-2.11,13.06,31.45,31.45,0,0,1-6.57,11.35,32.85,32.85,0,0,1-11.6,8A43.24,43.24,0,0,1,50,989.61H32.68V1036Zm11-56.93H49.87a29.66,29.66,0,0,0,13-2.51A22.89,22.89,0,0,0,71,970.23a23.31,23.31,0,0,0,4.22-8.11,29.08,29.08,0,0,0,1.22-7.87,23.39,23.39,0,0,0-1.7-8.68A22.92,22.92,0,0,0,69.82,938a23.88,23.88,0,0,0-8.27-5.35,30.63,30.63,0,0,0-11.52-2H32.68Z" transform="translate(-5)"/><path class="cls-2" d="M110.85,1036V920.19h28.06a49.22,49.22,0,0,1,14.11,2,35.25,35.25,0,0,1,12.08,6.24A31.16,31.16,0,0,1,173.54,939a33.39,33.39,0,0,1,3.16,15.08,40.81,40.81,0,0,1-4.38,18.49q-4.38,8.76-14.43,13.46l3.89,6.49q2.43,4.06,5.35,8.84l6.08,10q3.16,5.19,6.08,9.89t5.35,8.6q2.43,3.89,3.89,6.16H175.08q-1.3-1.95-3.41-5.35T167,1023q-2.6-4.22-5.51-8.92t-5.68-9.24q-2.76-4.54-5.27-8.6t-4.3-7a17.24,17.24,0,0,1-3.41.32H121.88V1036Zm11-56.93h17.19a28.89,28.89,0,0,0,13-2.59,23.67,23.67,0,0,0,8.19-6.41,23.32,23.32,0,0,0,4.22-8.11,29.08,29.08,0,0,0,1.22-7.87,22.78,22.78,0,0,0-1.7-8.6A23.13,23.13,0,0,0,159,938a23.88,23.88,0,0,0-8.27-5.35,30.63,30.63,0,0,0-11.52-2H121.88Z" transform="translate(-5)"/><path class="cls-2" d="M198.44,978.26a57.65,57.65,0,0,1,4.62-22.95,59.78,59.78,0,0,1,31.46-31.71,56.8,56.8,0,0,1,23-4.7,57.38,57.38,0,0,1,23,4.7,59.68,59.68,0,0,1,18.9,12.81,61.61,61.61,0,0,1,12.73,18.9,58.34,58.34,0,0,1,0,45.9A60.56,60.56,0,0,1,299.4,1020a59.21,59.21,0,0,1-18.9,12.65,58.23,58.23,0,0,1-23,4.62,57.64,57.64,0,0,1-23-4.62,59,59,0,0,1-31.46-31.47A57.64,57.64,0,0,1,198.44,978.26Zm11,0a47.19,47.19,0,0,0,3.81,18.9,49.64,49.64,0,0,0,10.3,15.41,48.22,48.22,0,0,0,15.25,10.38,46.22,46.22,0,0,0,18.65,3.81,46.81,46.81,0,0,0,18.73-3.81A48.54,48.54,0,0,0,302,997.15a48.74,48.74,0,0,0,0-37.79,50,50,0,0,0-10.38-15.49,48.35,48.35,0,0,0-15.41-10.46,46.85,46.85,0,0,0-18.73-3.81,46.08,46.08,0,0,0-18.73,3.81,48.77,48.77,0,0,0-25.55,26A48.08,48.08,0,0,0,209.47,978.26Z" transform="translate(-5)"/><path class="cls-3" d="M359.08,1036V920.19h27.09a61.39,61.39,0,0,1,14.68,1.62A30.57,30.57,0,0,1,412.11,927a23.15,23.15,0,0,1,7.22,9.24A34,34,0,0,1,421.84,950a40.65,40.65,0,0,1-1,9,28.28,28.28,0,0,1-3.08,7.95,22,22,0,0,1-5.51,6.33,24.62,24.62,0,0,1-8.43,4.14,38.26,38.26,0,0,1,8.84,3.08A27.51,27.51,0,0,1,420.3,986a26.31,26.31,0,0,1,5.35,8.19,28.33,28.33,0,0,1,2,11.11A28.8,28.8,0,0,1,424.6,1019a27.6,27.6,0,0,1-8.19,9.57,36.35,36.35,0,0,1-11.76,5.6,50.8,50.8,0,0,1-13.79,1.87Zm11-105.75v42.66h19.46q10.54,0,15.89-6.24t5.35-15.81q0-10.86-6.49-15.73t-16.87-4.87Zm0,52.23v43.47h19.79a37.91,37.91,0,0,0,10.38-1.38,26.4,26.4,0,0,0,8.51-4.05,19.23,19.23,0,0,0,5.76-6.73,20.12,20.12,0,0,0,2.11-9.41,19.78,19.78,0,0,0-2.43-10.06,19.33,19.33,0,0,0-6.57-6.81,30.48,30.48,0,0,0-9.41-3.81,47.83,47.83,0,0,0-10.79-1.22Z" transform="translate(-5)"/><path class="cls-3" d="M453.47,1036V920.19h73v10.06h-62v42.33H520V983H464.5v42.66h64.23V1036Z" transform="translate(-5)"/><path class="cls-3" d="M615.82,920.19v10.54H585V1036H573.82V930.74H543.32V920.19Z" transform="translate(-5)"/><path class="cls-3" d="M703.89,1036q-3.25-7.46-7.62-18.33t-9.08-23H642.75q-4.71,12.16-9.08,23T626,1036H615q2.43-5.84,6.49-15.49t8.76-21.17q4.7-11.51,9.73-23.92t9.73-23.92q4.7-11.51,8.68-21.08T665,914.84q2.43,6,6.49,15.57t8.76,21.08q4.7,11.52,9.81,23.92t9.81,23.92q4.7,11.52,8.68,21.17t6.57,15.49Zm-40.55-92.77q-3.25,7.63-7.7,18.65t-9.16,23.19h37q-4.87-12.16-9.25-23.19t-7.62-18.65a16.36,16.36,0,0,1-.81-2.19q-.49-1.54-.81-2.84-.33,1.3-.81,2.84A16.64,16.64,0,0,1,663.35,943.23Z" transform="translate(-5)"/></svg>