<svg id="Layer_1" data-name="Layer 1" xmlns="http://www.w3.org/2000/svg" viewBox="0 0 678 678"><defs><style>.cls-1{fill:#1b96fe;fill-rule:evenodd;}</style></defs><title>Assignments-transp</title><path class="cls-1" d="M669.48,22h-619A29.52,29.52,0,0,0,21,51.52v619A29.52,29.52,0,0,0,50.52,700h619A29.52,29.52,0,0,0,699,670.48v-619A29.52,29.52,0,0,0,669.48,22ZM566,601.72A17.28,17.28,0,0,1,548.72,619H170.28A17.28,17.28,0,0,1,153,601.72V118.28A17.28,17.28,0,0,1,170.28,101H548.72A17.28,17.28,0,0,1,566,118.28Z" transform="translate(-21 -22)"/><path class="cls-1" d="M252.44,211.5A3.52,3.52,0,0,0,256,215H462a3.5,3.5,0,1,0,0-7H256A3.52,3.52,0,0,0,252.44,211.5Z" transform="translate(-21 -22)"/><path class="cls-1" d="M190.52,156h61.2a3.5,3.5,0,1,0,0-7h-61.2a3.5,3.5,0,1,0,0,7Z" transform="translate(-21 -22)"/><path class="cls-1" d="M190.52,173h61.2a3.5,3.5,0,1,0,0-7h-61.2a3.5,3.5,0,1,0,0,7Z" transform="translate(-21 -22)"/><path class="cls-1" d="M528.2,248H190.52a3.5,3.5,0,1,0,0,7H528.2a3.5,3.5,0,1,0,0-7Z" transform="translate(-21 -22)"/><path class="cls-1" d="M528.2,287H190.52a3.5,3.5,0,1,0,0,7H528.2a3.5,3.5,0,1,0,0-7Z" transform="translate(-21 -22)"/><path class="cls-1" d="M528.2,327H190.52a3.5,3.5,0,1,0,0,7H528.2a3.5,3.5,0,1,0,0-7Z" transform="translate(-21 -22)"/><path class="cls-1" d="M528.2,366H190.52a4,4,0,0,0,0,8H528.2a4,4,0,0,0,0-8Z" transform="translate(-21 -22)"/><path class="cls-1" d="M528.2,406H190.52a3.5,3.5,0,1,0,0,7H528.2a3.5,3.5,0,1,0,0-7Z" transform="translate(-21 -22)"/><path class="cls-1" d="M528.2,446H190.52a3.5,3.5,0,1,0,0,7H528.2a3.5,3.5,0,1,0,0-7Z" transform="translate(-21 -22)"/><path class="cls-1" d="M528.2,485H190.52a3.5,3.5,0,1,0,0,7H528.2a3.5,3.5,0,1,0,0-7Z" transform="translate(-21 -22)"/><path class="cls-1" d="M528.2,525H190.52a3.5,3.5,0,1,0,0,7H528.2a3.5,3.5,0,1,0,0-7Z" transform="translate(-21 -22)"/><path class="cls-1" d="M528.2,564H190.52a4,4,0,0,0,0,8H528.2a4,4,0,0,0,0-8Z" transform="translate(-21 -22)"/></svg>