<svg id="Layer_1" data-name="Layer 1" xmlns="http://www.w3.org/2000/svg" viewBox="0 0 677.52 677.52"><defs><style>.cls-1{fill:#1b96fe;}.cls-1,.cls-2{fill-rule:evenodd;}.cls-2{fill:#fff;}</style></defs><title>Assignments-transp-fixed</title><path class="cls-1" d="M50.12,21.6H668.6a29.52,29.52,0,0,1,29.52,29.52V669.6a29.52,29.52,0,0,1-29.52,29.52H50.12A29.52,29.52,0,0,1,20.6,669.6V51.12A29.52,29.52,0,0,1,50.12,21.6Z" transform="translate(-20.6 -21.6)"/><path class="cls-2" d="M170.64,100.8H549.36a17.28,17.28,0,0,1,17.28,17.28V601.92a17.28,17.28,0,0,1-17.28,17.28H170.64a17.28,17.28,0,0,1-17.28-17.28V118.08A17.28,17.28,0,0,1,170.64,100.8Z" transform="translate(-20.6 -21.6)"/><path class="cls-1" d="M194.36,138h45.36a19.44,19.44,0,0,1,0,38.88H194.36a19.44,19.44,0,0,1,0-38.88Z" transform="translate(-20.6 -21.6)"/><path class="cls-1" d="M305.24,215H425.48a19.44,19.44,0,0,1,0,38.88H305.24a19.44,19.44,0,0,1,0-38.88Z" transform="translate(-20.6 -21.6)"/><path class="cls-1" d="M205.16,280.56H524.84a19.44,19.44,0,0,1,0,38.88H205.16a19.44,19.44,0,0,1,0-38.88Z" transform="translate(-20.6 -21.6)"/><path class="cls-1" d="M205.88,346.08H525.56a19.44,19.44,0,1,1,0,38.88H205.88a19.44,19.44,0,0,1,0-38.88Z" transform="translate(-20.6 -21.6)"/><path class="cls-1" d="M205.88,411.6H525.56a19.44,19.44,0,1,1,0,38.88H205.88a19.44,19.44,0,0,1,0-38.88Z" transform="translate(-20.6 -21.6)"/><path class="cls-1" d="M205.16,477.12H524.84a19.44,19.44,0,0,1,0,38.88H205.16a19.44,19.44,0,0,1,0-38.88Z" transform="translate(-20.6 -21.6)"/><path class="cls-1" d="M205.88,542.64H525.56a19.44,19.44,0,1,1,0,38.88H205.88a19.44,19.44,0,0,1,0-38.88Z" transform="translate(-20.6 -21.6)"/></svg>