<svg id="Layer_1" data-name="Layer 1" xmlns="http://www.w3.org/2000/svg" viewBox="0 0 678 678"><defs><style>.cls-1,.cls-2{fill:#1b96fe;}.cls-2{fill-rule:evenodd;}</style></defs><title>Classes-transp</title><rect class="cls-1" x="224" y="196" width="257" height="119" rx="7.2" ry="7.2"/><path class="cls-2" d="M699,51.52A29.52,29.52,0,0,0,669.48,22h-619A29.52,29.52,0,0,0,21,51.52v619A29.52,29.52,0,0,0,50.52,700h619A29.52,29.52,0,0,0,699,670.48ZM182,623h-8.48c-7.16,0-12.52-6.12-12.52-13.28v-499A12.42,12.42,0,0,1,173.52,98H182Zm377-13.28c0,7.16-5.36,13.28-12.52,13.28H188V98H546.48A12.42,12.42,0,0,1,559,110.76Z" transform="translate(-21 -22)"/></svg>