<?xml version="1.0" encoding="iso-8859-1"?>
<!-- Generator: Adobe Illustrator 19.0.0, SVG Export Plug-In . SVG Version: 6.00 Build 0)  -->
<svg xmlns="http://www.w3.org/2000/svg" xmlns:xlink="http://www.w3.org/1999/xlink" version="1.1" id="Capa_1" x="0px" y="0px" viewBox="0 0 490.236 490.236" style="enable-background:new 0 0 490.236 490.236;" xml:space="preserve" width="512px" height="512px">
<g>
	<g>
		<path d="M207.936,237.318l-196.8,112.4c-10.9,6.2-14.4,21-7.8,31.9s20.6,13.6,30.3,5.4    C33.736,387.018,208.336,236.918,207.936,237.318z" fill="#1B96FE"/>
		<rect x="40.736" y="37.118" width="449.5" height="49" fill="#1B96FE"/>
		<polygon points="313.336,380.818 326.136,453.118 379.836,453.118 366.936,380.818   " fill="#1B96FE"/>
		<polygon points="151.136,453.118 204.836,453.118 217.236,380.818 163.636,380.818   " fill="#1B96FE"/>
		<path d="M71.436,287.918l124.5-71c14.5-8.2,26.8-3.7,35.3,12.7c3.5,9.3,0.8,20.2-7,26.8l-118.2,100.3h320.8    c18.3,0,32.7-15.9,32.7-35.4v-211.1h-388.1V287.918z M397.336,149.818c0-6.6,5.4-12.1,12.1-12.1c6.6,0,12.1,5.4,12.1,12.1v143.5    c0,6.6-5.4,12.1-12.1,12.1c-6.6,0-12.1-5.4-12.1-12.1V149.818z M338.536,178.618c0-6.6,5.4-12.1,12.1-12.1    c6.6,0,12.1,5.4,12.1,12.1v114.7c0,6.6-5.4,12.1-12.1,12.1c-6.6,0-12.1-5.4-12.1-12.1V178.618z M279.836,201.518    c0-6.6,5.4-12.1,12.1-12.1c6.6,0,12.1,5.4,12.1,12.1v91.8c0,6.6-5.4,12.1-12.1,12.1c-6.6,0-12.1-5.4-12.1-12.1V201.518z" fill="#1B96FE"/>
	</g>
</g>
<g>
</g>
<g>
</g>
<g>
</g>
<g>
</g>
<g>
</g>
<g>
</g>
<g>
</g>
<g>
</g>
<g>
</g>
<g>
</g>
<g>
</g>
<g>
</g>
<g>
</g>
<g>
</g>
<g>
</g>
</svg>
