<svg id="Layer_1" data-name="Layer 1" xmlns="http://www.w3.org/2000/svg" viewBox="0 0 678 678"><defs><style>.cls-1{fill:#1b96fe;fill-rule:evenodd;}</style></defs><title>Components-transp</title><path class="cls-1" d="M699,51.52A29.52,29.52,0,0,0,669.48,22h-619A29.52,29.52,0,0,0,21,51.52v619A29.52,29.52,0,0,0,50.52,700h619A29.52,29.52,0,0,0,699,670.48ZM567,476V604H429.12a79.92,79.92,0,1,0-150.25,0H131V451.34a79.92,79.92,0,1,0,0-148.69V168H258.65c0-51,40.36-90.15,90.15-90.15S438.95,117,438.95,168H567V295.74c51,0,90.15,40.36,90.15,90.15S618,476,567,476Z" transform="translate(-21 -22)"/></svg>