<svg id="Layer_1" data-name="Layer 1" xmlns="http://www.w3.org/2000/svg" viewBox="0 0 678 678"><defs><style>.cls-1{fill:#1b96fe;fill-rule:evenodd;}</style></defs><title>Tutorial-transp</title><path class="cls-1" d="M699,51.52A29.52,29.52,0,0,0,669.48,22h-619A29.52,29.52,0,0,0,21,51.52v619A29.52,29.52,0,0,0,50.52,700h619A29.52,29.52,0,0,0,699,670.48ZM538,440.41C538,488.8,463.59,528,372.5,528S207,488.8,207,440.41V365.58l152.94,66.18L538,354.69Zm-178-21L98.58,306.22,360,193,621.32,306.22Z" transform="translate(-21 -22)"/></svg>