<svg id="Layer_1" data-name="Layer 1" xmlns="http://www.w3.org/2000/svg" viewBox="0 0 2398.51 680.75"><defs><style>.cls-1{fill:#1b96fe;}.cls-2{fill:#fe7d1b;}</style></defs><title>Logo-transp-fixed again</title><path class="cls-1" d="M648.48,0h-619A29.52,29.52,0,0,0,0,29.52v619A29.52,29.52,0,0,0,29.52,678h619A29.52,29.52,0,0,0,678,648.48v-619A29.52,29.52,0,0,0,648.48,0ZM154.41,609.23a8.87,8.87,0,0,1-.68,1.1c-3.75-20.76-14.4-30.61-36.17-33.72-15-2.15-22.31-9.47-24.45-24.46-2.47-17.25-9.39-27.87-22.39-33.49l412-412.13,87.09,87.12Zm-91.41-4V530.29a8.39,8.39,0,0,1,1.67-4.94c12.27,4.25,17.94,12.87,20.09,28,2.62,18.32,12.44,28.88,31.61,31.62,20,2.87,26.8,11.3,29.43,29.06h-74A9,9,0,0,1,63,605.23ZM580.64,182.78,493.55,95.66l32.77-32.78L613.41,150Z"/><path class="cls-1" d="M456.74,168.59c-2.87-2.87-6.81-3.57-8.8-1.57L294.79,320.21c-2,2-1.29,5.94,1.57,8.8s6.81,3.57,8.8,1.57L458.3,177.38C460.31,175.39,459.6,171.45,456.74,168.59Z"/><path class="cls-1" d="M744.65,359.94V6.15h85.73a150.44,150.44,0,0,1,43.11,6.2,107.7,107.7,0,0,1,36.93,19.08,95.2,95.2,0,0,1,25.77,32.22Q945.8,83,945.8,109.73a124.69,124.69,0,0,1-13.38,56.46q-13.31,26.78-44,41.19l11.89,19.82q7.44,12.4,16.35,27l18.58,30.48q9.61,15.87,18.58,30.24t16.35,26.27Q977.57,353.08,982,360H940.91q-4-6-10.4-16.35t-14.42-23.29q-7.93-12.88-16.82-27.26T882,264.85q-8.41-13.87-16.11-26.27t-13.13-21.31a52.64,52.64,0,0,1-10.4,1h-64V359.94Zm33.7-174h52.53q23.78,0,39.64-7.93t25-19.58a71.26,71.26,0,0,0,12.87-24.72,88.89,88.89,0,0,0,3.71-24,69.6,69.6,0,0,0-5.2-26.27,70.69,70.69,0,0,0-15.11-23,73,73,0,0,0-25.23-16.35q-15.36-6.19-35.18-6.2h-53Z"/><path class="cls-1" d="M1162.44,364a140.38,140.38,0,0,1-49.8-8.67,118,118,0,0,1-39.89-24.53,112.14,112.14,0,0,1-26.51-38.91q-9.61-23-9.61-52.29V6.15h33.7V238.08a103.13,103.13,0,0,0,6.94,38.66,84.6,84.6,0,0,0,19.33,29.49,87.14,87.14,0,0,0,29.18,18.87,98.5,98.5,0,0,0,36.67,6.69,97.15,97.15,0,0,0,36.18-6.69,85.66,85.66,0,0,0,48.82-48.33,100.18,100.18,0,0,0,7.21-38.66V6.15h33.7V239.57q0,29.25-9.61,52.29A110.51,110.51,0,0,1,1252,330.77a120.83,120.83,0,0,1-40.15,24.53A139,139,0,0,1,1162.44,364Z"/><path class="cls-1" d="M1385.45,359.94V6.15h82.73a187.62,187.62,0,0,1,44.85,5A93.36,93.36,0,0,1,1547.47,27a70.75,70.75,0,0,1,22.05,28.25q7.68,17.36,7.68,42.13a124.15,124.15,0,0,1-3,27.51,86.42,86.42,0,0,1-9.42,24.29A67.2,67.2,0,0,1,1548,168.46a75.21,75.21,0,0,1-25.74,12.63,117,117,0,0,1,27,9.42,84.2,84.2,0,0,1,23.29,16.82,80.39,80.39,0,0,1,16.35,25q6.19,14.62,6.2,33.95,0,23.78-9.42,41.64a84.38,84.38,0,0,1-25,29.27,111.09,111.09,0,0,1-35.93,17.09,155.19,155.19,0,0,1-42.15,5.65Zm33.7-323.14V167.14h59.47q32.21,0,48.57-19.08t16.35-48.33q0-33.2-19.82-48.05t-51.55-14.87Zm0,159.59V329.27h60.46a115.81,115.81,0,0,0,31.71-4.22,80.69,80.69,0,0,0,26-12.38,58.78,58.78,0,0,0,17.6-20.57q6.44-12.38,6.44-28.75,0-17.84-7.44-30.73a59.11,59.11,0,0,0-20.07-20.82,93.12,93.12,0,0,0-28.75-11.65,146.13,146.13,0,0,0-33-3.71Z"/><path class="cls-1" d="M1673.39,359.94V6.15h85.73a150.46,150.46,0,0,1,43.11,6.2,107.72,107.72,0,0,1,36.93,19.08,95.2,95.2,0,0,1,25.77,32.22q9.61,19.33,9.61,46.09a124.69,124.69,0,0,1-13.38,56.46q-13.32,26.78-44,41.19L1829,227.2q7.44,12.37,16.37,27L1864,284.7q9.61,15.87,18.58,30.24t16.35,26.27q7.44,11.89,11.89,18.84h-41.13q-4-6-10.4-16.35t-14.42-23.29q-7.93-12.88-16.82-27.26t-17.35-28.25q-8.41-13.87-16.11-26.27t-13.13-21.31a52.65,52.65,0,0,1-10.4,1H1707.1V359.94Zm33.7-174h52.53q23.78,0,39.64-7.93t25-19.58a71.28,71.28,0,0,0,12.89-24.78,88.89,88.89,0,0,0,3.71-24,69.58,69.58,0,0,0-5.2-26.27,70.68,70.68,0,0,0-15.11-23A73,73,0,0,0,1795.35,44q-15.36-6.19-35.18-6.2h-53Z"/><path class="cls-1" d="M1972.24,6.15h34.2V359.94h-34.2Z"/><path class="cls-1" d="M2363.26,336.21q-15.87,9.92-42.13,18.84t-61,8.93q-41.14,0-74.09-14.42a167.7,167.7,0,0,1-56-38.87,175.73,175.73,0,0,1-35.69-56.75,185.56,185.56,0,0,1-12.64-68.39,183.71,183.71,0,0,1,14.42-72.86,180.86,180.86,0,0,1,168-110.52,214.34,214.34,0,0,1,27,1.73A184.64,184.64,0,0,1,2340,17,90.36,90.36,0,0,1,2357.84,27q-2.49,4-4,6.44t-3,5.2q-1.49,2.73-3.47,6.2t-5,8.93a122,122,0,0,0-36.93-14.87,176.64,176.64,0,0,0-40.39-5,144.59,144.59,0,0,0-58.48,11.89,148.26,148.26,0,0,0-47.33,32.43,155.73,155.73,0,0,0-31.71,47.58A143,143,0,0,0,2116,183a149.87,149.87,0,0,0,10.4,55.26,140.35,140.35,0,0,0,29.73,46.58,148.23,148.23,0,0,0,46,32.25q26.76,12.14,59.47,12.14a168.69,168.69,0,0,0,27.75-2.23,170.37,170.37,0,0,0,24.78-6,190.24,190.24,0,0,0,20.07-7.68,65.88,65.88,0,0,0,13.63-7.93Z"/><path class="cls-1" d="M738.87,677.67V400.54H806a117.83,117.83,0,0,1,33.77,4.85,84.36,84.36,0,0,1,28.93,14.94,74.55,74.55,0,0,1,20.23,25.21q7.53,15.14,7.53,36.1a99.44,99.44,0,0,1-5,31.24,75.27,75.27,0,0,1-15.72,27.17Q865,551.91,848,559.27t-41.14,7.38H765.27v111Zm26.39-136.24h41.14q18.63,0,31-6t19.6-15.14a55.8,55.8,0,0,0,10.09-19.41,69.62,69.62,0,0,0,2.91-18.82A56,56,0,0,0,866,461.3,54.87,54.87,0,0,0,854.13,443a57.14,57.14,0,0,0-19.76-12.81q-12-4.85-27.56-4.85H765.27Z"/><path class="cls-1" d="M952.36,677.67V400.54h67.15a117.84,117.84,0,0,1,33.77,4.85,84.37,84.37,0,0,1,28.92,14.94,74.55,74.55,0,0,1,20.19,25.21q7.53,15.14,7.53,36.1a97.67,97.67,0,0,1-10.48,44.22q-10.48,21-34.55,32.21l9.31,15.52q5.82,9.71,12.8,21.16l14.57,23.9q7.53,12.43,14.55,23.68t12.8,20.58q5.82,9.31,9.31,14.75H1106q-3.11-4.7-8.15-12.8t-11.29-18.24q-6.21-10.09-13.17-21.35t-13.59-22.13q-6.59-10.87-12.62-20.58t-10.28-16.69a41.2,41.2,0,0,1-8.15.78h-50v111Zm26.39-136.24h41.14q18.63,0,31-6.21t19.59-15.35a55.82,55.82,0,0,0,10.09-19.41,69.62,69.62,0,0,0,2.91-18.82,54.5,54.5,0,0,0-4.07-20.58,55.36,55.36,0,0,0-11.84-18,57.13,57.13,0,0,0-19.76-12.81q-12-4.85-27.56-4.85H978.76Z"/><path class="cls-1" d="M1162,539.5A138,138,0,0,1,1173,484.57a143.06,143.06,0,0,1,75.27-75.89,135.94,135.94,0,0,1,54.92-11.29,137.36,137.36,0,0,1,55.11,11.29,142.82,142.82,0,0,1,45.24,30.67A147.5,147.5,0,0,1,1434,484.57a139.63,139.63,0,0,1,0,109.85,145,145,0,0,1-30.47,45,141.69,141.69,0,0,1-45.16,30.28,139.34,139.34,0,0,1-55.16,11,137.94,137.94,0,0,1-54.92-11,141.12,141.12,0,0,1-75.27-75.27A137.93,137.93,0,0,1,1162,539.5Zm26.39,0a112.9,112.9,0,0,0,9.13,45.22,118.74,118.74,0,0,0,24.65,36.87,115.36,115.36,0,0,0,36.48,24.84,110.6,110.6,0,0,0,44.64,9.13,112,112,0,0,0,44.83-9.13,116.11,116.11,0,0,0,61.72-152.16A119.69,119.69,0,0,0,1385,457.19a115.72,115.72,0,0,0-36.9-25,112.12,112.12,0,0,0-44.83-9.13,110.27,110.27,0,0,0-44.83,9.13,116.66,116.66,0,0,0-61.15,62.09,115,115,0,0,0-8.89,45.23Z"/><path class="cls-2" d="M1546.4,677.67V400.54h64.82a147,147,0,0,1,35.13,3.89,73.13,73.13,0,0,1,27,12.42A55.41,55.41,0,0,1,1690.6,439q6,13.59,6,33a97.23,97.23,0,0,1-2.32,21.57,67.74,67.74,0,0,1-7.38,19,52.62,52.62,0,0,1-13.17,15.14,58.9,58.9,0,0,1-20.18,9.9,91.65,91.65,0,0,1,21.16,7.38A65.91,65.91,0,0,1,1693,558.13a63,63,0,0,1,12.8,19.6q4.85,11.45,4.85,26.59,0,18.63-7.38,32.61a66.07,66.07,0,0,1-19.6,22.9,87,87,0,0,1-28.18,13.4,121.54,121.54,0,0,1-33,4.46Zm26.39-253.08V526.68h46.58q25.22,0,38-14.94t12.8-37.85q0-26-15.52-37.63t-40.37-11.66Zm0,125v104h47.35a90.7,90.7,0,0,0,24.84-3.3,63.21,63.21,0,0,0,20.38-9.7,46,46,0,0,0,13.78-16.11,48.13,48.13,0,0,0,5-22.51q0-14-5.82-24.07a46.29,46.29,0,0,0-15.72-16.3,72.93,72.93,0,0,0-22.51-9.13,114.42,114.42,0,0,0-25.82-2.91Z"/><path class="cls-2" d="M1772.3,677.67V400.54H1947V424.6H1798.72V525.91h132.75v24.84H1798.72V652.83h153.71v24.84Z"/><path class="cls-2" d="M2160.84,400.54v25.25h-73.75V677.67h-26.82V425.79h-73V400.54Z"/><path class="cls-2" d="M2371.61,677.67q-7.77-17.88-18.24-43.86t-21.73-55.11H2225.32q-11.29,29.11-21.73,55.11t-18.24,43.86H2159q5.82-14,15.52-37.07t21-50.65q11.29-27.56,23.29-57.25T2242,475.45q11.29-27.56,20.76-50.46t15.72-37.27Q2284.32,402.1,2294,425t21,50.46q11.29,27.57,23.52,57.25T2362,590q11.29,27.57,20.76,50.65t15.72,37.07Zm-97-222q-7.77,18.25-18.44,44.64t-21.93,55.51h88.5q-11.65-29.11-22.13-55.51t-18.28-44.63a38.82,38.82,0,0,1-1.94-5.24q-1.17-3.69-1.94-6.79-.78,3.11-1.94,6.79a39.75,39.75,0,0,1-1.92,5.24Z"/></svg>